<svg width="220.00000000000003" height="142.48039963255803" viewBox="0 -5 220.00000000000003 142.48039963255803" class="css-1j8o68f">
    <defs id="SvgjsDefs1308">

    </defs>
    <g id="SvgjsG1309" featurekey="symbolFeature-0" transform="matrix(1.0736448280474504,0,0,1.0736448280474504,52.26227946382713,-13.011528888998708)" fill="#111111">
        <path xmlns="http://www.w3.org/2000/svg" fill-rule="evenodd" clip-rule="evenodd" d="M52.834,19.751c0.491,0.759-1.105,1.618-0.769,3.073  C51.341,21.833,52.391,20.427,52.834,19.751z">

        </path>
        <path xmlns="http://www.w3.org/2000/svg" fill-rule="evenodd" clip-rule="evenodd" d="M53.089,22.056c0.4,0.667-0.739,1.982-0.768,3.073  c0.148,0.521-0.174,2.018-0.256,0.769C51.904,24.115,52.359,22.948,53.089,22.056z">

        </path>
        <path xmlns="http://www.w3.org/2000/svg" fill-rule="evenodd" clip-rule="evenodd" d="M53.346,24.873c0.718,0.56,0.019,1.01,0,1.28  C53.175,28.657,52.861,26.742,53.346,24.873z">

        </path>
        <path xmlns="http://www.w3.org/2000/svg" fill-rule="evenodd" clip-rule="evenodd" d="M20.313,71.221c-0.301,0.952,1.896,2.818,1.281,4.097  c-1.04-1.436-2.1-2.851-3.073-4.353c0.759-0.583,1.69-0.593,2.816-1.28c1.113,1.191,2.148,2.462,2.817,4.097  c-0.438,0.246-0.562,0.805-0.769,1.28C22.192,73.952,21.545,72.296,20.313,71.221z">

        </path>
        <path xmlns="http://www.w3.org/2000/svg" fill-rule="evenodd" clip-rule="evenodd" d="M20.825,76.342c-0.797-1.423-2.172-2.266-2.561-4.097c0.171,0,0.342,0,0.512,0  C19.944,73,21.295,74.79,20.825,76.342z">

        </path><path xmlns="http://www.w3.org/2000/svg" fill-rule="evenodd" clip-rule="evenodd" d="M17.241,72.757c1.172,1.388,1.965,3.155,2.305,5.378  C18.565,76.695,16.684,74.891,17.241,72.757z"></path><path xmlns="http://www.w3.org/2000/svg" fill-rule="evenodd" clip-rule="evenodd" d="M16.217,76.598c-0.401,0.022,0.49,1.526-0.77,1.28  c0.126-0.809-0.46-0.905-0.255-1.792c0.676-0.093,0.921-0.615,0.768-1.536c0.786,1.177,1.189,2.735,2.305,3.585  C17.304,78.914,16.847,77.001,16.217,76.598z"></path><path xmlns="http://www.w3.org/2000/svg" fill-rule="evenodd" clip-rule="evenodd" d="M23.643,66.1c1.108,1.452,3.048,4.291,3.841,6.914  c-1.903-1.94-2.674-5.011-5.122-6.401c0.004-0.511,0.698-0.327,0.512-1.024c-4.816-1.593-6.945,4.425-11.01,4.353  c0.784-3.74,5.217-4.144,7.083-6.276c8.632,1.026,11.715-7.954,18.523-9.343c1.653-0.339,3.551-1.607,5.633-1.793  c1.409-0.127,4.792-0.528,6.914-0.257c0.943,0.12,1.194,0.781,2.305,0.77c3.265-0.036,8.36-4.023,12.547-3.842  c0.211-2.351,0.333-4.789,0.513-7.171c-5.462-1.562-10.229-5.969-14.083-9.985c-0.469-2.358-1.914-4.261-2.049-6.914  c-0.17-3.337,1.627-5.653,2.561-8.45c0.887-0.649,2.132-0.941,2.816-1.793c5.179,0.144,6.401-3.67,7.683-7.426  c0.801,1.803-0.841,5.199-2.049,6.658c2.991,0.79,5.64,1.644,7.938,3.328c3.236,2.374,5.397,6.489,7.938,9.987  c2.014,2.772,4.872,4.713,5.889,7.682c0.411,0.443,0.958,0.75,1.537,1.024c2.285,5.397,7.275,8.089,9.986,13.06  c1.641-0.189,2.234,0.667,3.073,1.28c-1.346,2.495-4.662,3.02-5.633,5.89c-5.57,4.49-11.607,8.124-17.67,12.291  c-3.076,2.115-5.433,4.708-9.475,6.146c3.246,3,5.529,8.551,5.891,13.314c0.111,1.492,0.105,3.835-1.024,4.609  c-1.574-0.691-0.426-2.508-0.513-3.841c-0.276-4.206-2.114-7.932-4.098-10.498c-3.019-3.909-8.27-3.388-13.314-5.121  c-0.792-1.087-1.669-2.087-2.306-3.329c-4.762,3.089-8.902,6.803-13.57,9.986c0.714,1.322-0.528,2.646-0.769,3.841  c-3.758,2.559-6.114,6.519-9.986,8.962c0.26-2.381,2.715-3.762,4.609-5.633c1.423-1.407,4.579-3.954,4.865-5.634  C34.172,78.266,27.153,67.445,23.643,66.1z M67.173,19.24c-3.375-2.584-9.246-3.932-14.339-2.049  c-0.315,0.794-0.564,1.656-1.536,1.792c-2.874,11.905,6.292,17.776,14.34,21.255c0.572-0.451,0.512-1.537,1.023-2.05  c-0.083-1.282-1.875-0.857-1.793-2.304c9.533,2.843,17.754,8.365,25.862,11.778C81.763,39.303,75.798,27.942,67.173,19.24z   M75.366,52.785c3.049-0.195,5.705-0.783,8.963-0.769c0.096-1.782-0.236-3.992,0.257-5.377c-2.911-1.442-5.561-3.147-8.706-4.354  C74.928,45.13,74.302,50.187,75.366,52.785z M74.6,41.517c-2.351-1.149-4.803-2.196-7.17-3.329  c-1.721,4.347-0.882,11.132-0.513,15.621c2.863,0.132,4.55-0.914,7.425-0.768C74.521,48.9,74.402,46.408,74.6,41.517z   M85.098,51.504c2.564,0.457,5.372,0.146,7.426-1.024c-2.531-0.884-4.407-2.421-6.914-3.329  C84.976,48.033,84.984,50.704,85.098,51.504z M58.467,51.504c-1.799,0.534-4.761,1.503-4.353,3.329c0.035,0.659,1.142-1.02,1.536,0  c-1.087-0.25-0.512,0.805-0.769,1.278c-1.771,3.301-3.551,8.517-5.378,12.037c0.52,5.231,9.985,4.792,13.06,4.097  c10.361-2.347,20.371-11.793,28.167-16.134c0.501-2.229,2.841-2.621,3.841-4.352c-3.948,0.639-8.448,1.495-12.29,1.536  c-2.466,0.027-4.933,0.828-7.426,1.025c-0.277,0.02-0.819-0.504-1.024-0.513c-3.542-0.15-7.348,2.158-10.243,0.769  c0.403-0.024,0.888,0.034,0.77-0.512c-0.479-0.246-0.857,0.766-1.024,0c0.24-1.002,1.29-0.218,2.048-0.257  c0.005-1.114,0.084-2.305-0.257-3.073C63.293,50.448,60.568,50.88,58.467,51.504z M32.86,73.526  c0.562,1.742,1.714,2.896,2.049,4.865c4.121-3.295,8.897-5.659,12.547-9.475c2.729-2.853,2.862-7.061,4.865-11.01  c-0.799-0.748,0.712-2.375,0-3.073c-3.513-0.131-6.528-0.345-9.73-0.256c-7.816,0.214-13.068,5.601-16.9,10.242  c2.969,1.897,4.422,5.309,6.914,7.682c2.597-1.671,5.263-4.637,7.682-5.633C37.888,69.163,34.957,70.929,32.86,73.526z"></path><path xmlns="http://www.w3.org/2000/svg" fill-rule="evenodd" clip-rule="evenodd" d="M26.203,74.038c-1.294-1.78-1.901-4.244-3.842-5.377  C23.373,68.701,26.259,71.229,26.203,74.038z"></path></g><g id="SvgjsG1310" featurekey="nameFeature-0" transform="matrix(0.8807855785925277,0,0,0.8807855785925277,-1.7617912326222114,101.82857192514295)" fill="#111111"><path d="M5.2512 32.5068 c0.28394 0.0048436 0.56796 0.034922 0.70972 0.044648 c0.43708 0.92072 0.721 1.6761 1.1346 2.3514 c0.512 0.836 1.3679 1.1827 2.3198 1.1799 c0.32039 -0.00082032 0.69832 -0.18188 0.94944 -0.39738 c0.9944 -0.85388 1.3537 -1.9455 1.0292 -3.2304 c-0.3852 -1.5242 -1.2783 -2.7491 -2.3444 -3.8574 c-0.69628 -0.72344 -1.4307 -1.41 -2.1484 -2.1124 c-1.2322 -1.2058 -2.3335 -2.5215 -3.2477 -3.9833 c-1.0888 -1.7401 -1.5643 -3.6216 -1.1074 -5.6608 c0.11828 -0.5274 0.3034 -1.0778 0.60152 -1.5206 c1.1758 -1.7458 2.7442 -3.0108 4.8036 -3.5758 c2.9342 -0.80484 6.2464 0.94012 7.2004 3.8116 c0.23211 0.69872 0.3743 1.4408 0.448 2.174 c0.061564 0.61648 -0.13164 0.83724 -0.74448 0.93324 c-0.89356 0.14016 -1.7989 0.21062 -2.7009 0.28555 c-0.47592 0.039297 -0.80244 -0.20211 -0.96568 -0.65332 c-0.098828 -0.27383 -0.16973 -0.56064 -0.29531 -0.82108 c-0.18188 -0.3775 -0.36617 -0.76312 -0.61444 -1.0969 c-0.40344 -0.54196 -0.93 -0.91908 -1.6562 -0.81376 c-0.7522 0.10938 -1.0868 0.67364 -1.2597 1.3217 c-0.39453 1.478 -0.39613 2.9597 0.26492 4.3636 c0.22562 0.47916 0.61488 0.90572 1.0033 1.2796 c1.2601 1.2115 2.6114 2.3327 3.8212 3.5912 c1.431 1.4886 2.4409 3.2579 2.9808 5.2712 c0.2398 0.89436 0.28598 1.8155 0.012969 2.6859 c-0.36578 1.1658 -0.73276 2.3627 -1.3258 3.4187 c-1.3942 2.483 -3.895 3.4413 -6.642 2.7106 c-2.9196 -0.77648 -5.2636 -3.6184 -5.4688 -6.63 c-0.061992 -0.91176 0.17617 -1.1342 1.109 -1.0973 c0.71008 0.02793 1.4222 0.01375 2.133 0.027109 z M29.487000000000002 13.084 c0.0089064 -0.25356 0.070468 -0.50456 0.11867 -0.8282 c1.3873 -0.145 2.7524 -0.15066 4.1888 -0.10976 c0 0.87652 0.030781 1.6474 -0.0060936 2.4145 c-0.098008 2.0378 -0.30863 4.0732 -0.32199 6.1112 c-0.019844 3.0748 0.094804 6.1504 0.14219 9.2256 c0.034024 2.2096 -0.082228 4.3856 -0.91824 6.4896 c-0.8976 2.2586 -2.7005 3.2558 -4.9 3.6354 c-2.7082 0.46704 -5.2552 -0.75664 -6.5648 -3.4191 c-0.7684 -1.5619 -1.2472 -3.1942 -1.2682 -4.9416 c-0.018633 -1.5542 0.015391 -3.1092 -0.019844 -4.6624 c-0.049804 -2.201 -0.15754 -4.4004 -0.21102 -6.6012 c-0.049412 -2.0378 -0.060352 -4.076 -0.08668 -6.1144 c-0.0012109 -0.096796 0.012148 -0.19402 0.023476 -0.29043 c0.16242 -1.3926 0.43136 -1.632 1.8624 -1.6425 c0.55048 -0.0040624 1.103 -0.020664 1.6518 0.014961 c0.6254 0.0409 0.72708 0.14906 0.74856 0.77044 c0.031172 0.90652 0.04332 1.8138 0.0409 2.7208 c-0.010117 3.9185 -0.034844 7.8372 -0.039688 11.756 c-0.0020312 1.4574 0.0052736 2.916 0.069688 4.3716 c0.028359 0.63956 0.17418 1.2816 0.33133 1.9062 c0.14742 0.58572 0.53424 1.0248 1.0584 1.3371 c1.2873 0.76676 2.4461 0.41516 2.9885 -0.97824 c0.65292 -1.6781 0.89072 -3.4462 0.90204 -5.2364 c0.021875 -3.4 -0.016211 -6.8004 0.014961 -10.2 c0.017422 -1.9098 0.12113 -3.8189 0.19484 -5.728 z M47.287 26.901 c0.070468 -0.015391 0.1418 -0.031484 0.21308 -0.047264 c0.048204 -1.7438 0.053048 -3.4899 0.1543 -5.2304 c0.15191 -2.6171 0.36293 -5.2304 0.56872 -7.8444 c0.032812 -0.41476 0.13652 -0.83276 0.2698 -1.2285 c0.2641 -0.7842 0.5918 -0.94864 1.3987 -0.73516 c0.62416 0.16527 1.2451 0.34551 1.8604 0.54196 c0.91096 0.29082 1.1564 0.58732 1.1257 1.5509 c-0.047384 1.4878 -0.0875 2.9812 -0.2491 4.4596 c-0.48568 4.448 -0.719 8.906 -0.74372 13.379 c-0.010938 1.9422 -0.11262 3.8844 -0.19078 5.8264 c-0.019453 0.48404 -0.082228 0.96968 -0.17094 1.446 c-0.13812 0.74084 -0.42124 0.96928 -1.1799 1.0296 c-0.064412 0.0052736 -0.12961 0.0044532 -0.19402 0.0073048 c-1.9167 0.090312 -2.3299 -0.25641 -2.9476 -2.0706 c-1.5218 -4.47 -3.0962 -8.9228 -4.654 -13.38 c-0.027539 -0.078164 -0.11586 -0.13527 -0.30301 -0.34387 c0 0.54924 0.0024219 0.9478 -0.00042968 1.3464 c-0.025117 3.7856 -0.04172 7.5708 -0.085468 11.356 c-0.0076952 0.67728 -0.095588 1.3586 -0.20332 2.0285 c-0.16039 0.9936 -0.50672 1.2727 -1.5024 1.2403 c-0.48324 -0.015781 -0.97052 -0.070076 -1.4444 -0.16484 c-0.93324 -0.18633 -1.1508 -0.40908 -1.1649 -1.3695 c-0.027148 -1.8742 -0.092772 -3.7548 0.022656 -5.6228 c0.35484 -5.728 0.50428 -11.452 0.08832 -17.183 c-0.063204 -0.87004 -0.050664 -1.7498 -0.012578 -2.6223 c0.043752 -1.0074 0.4468 -1.3732 1.4651 -1.4177 c0.32242 -0.01418 0.64928 0.04172 0.97052 0.017812 c1.0045 -0.075352 1.7037 0.42488 2.1274 1.2496 c0.47108 0.91664 0.89032 1.873 1.2087 2.852 c0.77 2.3684 1.4456 4.7672 2.2043 7.1392 c0.40872 1.2788 0.90976 2.5279 1.3691 3.7905 z M60.13119999999999 32.5068 c0.28394 0.0048436 0.56796 0.034922 0.70972 0.044648 c0.43708 0.92072 0.721 1.6761 1.1346 2.3514 c0.512 0.836 1.3679 1.1827 2.3198 1.1799 c0.32039 -0.00082032 0.69832 -0.18188 0.94944 -0.39738 c0.9944 -0.85388 1.3537 -1.9455 1.0292 -3.2304 c-0.3852 -1.5242 -1.2783 -2.7491 -2.3444 -3.8574 c-0.69628 -0.72344 -1.4307 -1.41 -2.1484 -2.1124 c-1.2322 -1.2058 -2.3335 -2.5215 -3.2477 -3.9833 c-1.0888 -1.7401 -1.5643 -3.6216 -1.1074 -5.6608 c0.11828 -0.5274 0.3034 -1.0778 0.60152 -1.5206 c1.1758 -1.7458 2.7442 -3.0108 4.8036 -3.5758 c2.9342 -0.80484 6.2464 0.94012 7.2004 3.8116 c0.23211 0.69872 0.3743 1.4408 0.448 2.174 c0.061564 0.61648 -0.13164 0.83724 -0.74448 0.93324 c-0.89356 0.14016 -1.7989 0.21062 -2.7009 0.28555 c-0.47592 0.039297 -0.80244 -0.20211 -0.96568 -0.65332 c-0.098828 -0.27383 -0.16973 -0.56064 -0.29531 -0.82108 c-0.18188 -0.3775 -0.36617 -0.76312 -0.61444 -1.0969 c-0.40344 -0.54196 -0.93 -0.91908 -1.6562 -0.81376 c-0.7522 0.10938 -1.0868 0.67364 -1.2597 1.3217 c-0.39453 1.478 -0.39613 2.9597 0.26492 4.3636 c0.22562 0.47916 0.61488 0.90572 1.0033 1.2796 c1.2601 1.2115 2.6114 2.3327 3.8212 3.5912 c1.431 1.4886 2.4409 3.2579 2.9808 5.2712 c0.2398 0.89436 0.28598 1.8155 0.012969 2.6859 c-0.36578 1.1658 -0.73276 2.3627 -1.3258 3.4187 c-1.3942 2.483 -3.895 3.4413 -6.642 2.7106 c-2.9196 -0.77648 -5.2636 -3.6184 -5.4688 -6.63 c-0.061992 -0.91176 0.17617 -1.1342 1.109 -1.0973 c0.71008 0.02793 1.4222 0.01375 2.133 0.027109 z M79.40679999999999 24.372999999999998 c-0.010938 0.15676 0.021367 0.31578 0.044064 0.59444 c0.8648 0.04336 1.6364 0.094412 2.4085 0.11668 c0.64444 0.018633 1.2897 0.0036328 2.0192 0.0036328 c0.04336 -0.40344 0.1098 -0.74896 0.11266 -1.0944 c0.024726 -3.0112 0.039726 -6.0224 0.053908 -9.034 c0.0020312 -0.45324 -0.02793 -0.90692 -0.018594 -1.3602 c0.016211 -0.76596 0.30176 -1.0827 1.0478 -1.0742 c0.74328 0.008086 1.4886 0.062344 2.2274 0.1466 c0.5918 0.067656 0.87252 0.41076 0.89844 1.075 c0.027539 0.71168 0.0040624 1.425 -0.0016016 2.1378 c-0.031602 3.9177 -0.15961 7.8376 -0.064844 11.752 c0.068436 2.8196 0.047384 5.6324 -0.041328 8.4476 c-0.025508 0.80728 -0.10691 1.6158 -0.21102 2.4174 c-0.093984 0.72548 -0.30906 0.8952 -1.0811 0.9738 c-0.45044 0.04578 -0.90288 0.094804 -1.3545 0.095196 c-1.2066 0.00082032 -1.5838 -0.36008 -1.6133 -1.5376 c-0.021055 -0.84172 -0.01375 -1.6842 -0.017383 -2.5267 c-0.010547 -2.2999 -0.019062 -4.5996 -0.032031 -6.8996 c-0.00082032 -0.12637 -0.032422 -0.25274 -0.062812 -0.47792 l-4.3231 0 c-0.015391 0.3443 -0.043752 0.689 -0.044572 1.0341 c-0.0044532 2.2355 0.019024 4.4712 -0.015 6.7056 c-0.012539 0.83684 -0.097616 1.6826 -0.25316 2.5048 c-0.16484 0.87252 -0.51076 1.1407 -1.4063 1.1889 c-0.5772 0.030781 -1.1649 -0.0060936 -1.7389 -0.081444 c-1.0146 -0.13367 -1.2945 -0.40464 -1.327 -1.4424 c-0.057928 -1.8442 -0.14945 -3.6965 -0.04332 -5.5348 c0.22723 -3.9452 0.41072 -7.8872 0.43864 -11.841 c0.016602 -2.3898 0.32121 -4.778 0.50308 -7.1664 c0.034414 -0.4492 0.17859 -0.86156 0.71852 -0.87492 c0.87168 -0.021055 1.7482 -0.048592 2.6154 0.018633 c0.79756 0.061992 1.0794 0.37875 1.1665 1.1678 c0.04578 0.41476 0.020274 0.84048 -0.0060548 1.2593 c-0.19562 3.1023 -0.40096 6.2036 -0.59824 9.306 z M92.20629999999998 25.93 c0.063592 -0.00082032 0.12676 -0.0016406 0.19035 -0.0024609 c-0.060744 -2.0054 -0.15551 -4.0108 -0.17254 -6.0168 c-0.016602 -1.9414 0.030391 -3.8841 0.082656 -5.8256 c0.025117 -0.93408 0.13527 -1.0321 1.0511 -1.201 c0.47716 -0.087892 0.9608 -0.14664 1.4444 -0.18957 c1.0333 -0.091524 1.3156 0.091952 1.3877 1.1143 c0.097616 1.3861 0.1057 2.7787 0.13973 4.1692 c0.072108 2.9435 0.13207 5.8872 0.20418 8.8304 c0.08426 3.4296 0.20215 6.8588 0.25398 10.289 c0.023906 1.5785 -1.0888 2.5182 -2.6531 2.2185 c-1.907 -0.36535 -1.9082 -0.31715 -1.9212 -2.2233 c-0.025508 -3.7208 -0.0072656 -7.442 -0.0072656 -11.163 z M110.28699999999998 26.901 c0.070468 -0.015391 0.1418 -0.031484 0.21308 -0.047264 c0.048204 -1.7438 0.053048 -3.4899 0.1543 -5.2304 c0.15191 -2.6171 0.36293 -5.2304 0.56872 -7.8444 c0.032812 -0.41476 0.13652 -0.83276 0.2698 -1.2285 c0.2641 -0.7842 0.5918 -0.94864 1.3987 -0.73516 c0.62416 0.16527 1.2451 0.34551 1.8604 0.54196 c0.91096 0.29082 1.1564 0.58732 1.1257 1.5509 c-0.047384 1.4878 -0.0875 2.9812 -0.2491 4.4596 c-0.48568 4.448 -0.719 8.906 -0.74372 13.379 c-0.010938 1.9422 -0.11262 3.8844 -0.19078 5.8264 c-0.019453 0.48404 -0.082228 0.96968 -0.17094 1.446 c-0.13812 0.74084 -0.42124 0.96928 -1.1799 1.0296 c-0.064412 0.0052736 -0.12961 0.0044532 -0.19402 0.0073048 c-1.9167 0.090312 -2.3299 -0.25641 -2.9476 -2.0706 c-1.5218 -4.47 -3.0962 -8.9228 -4.654 -13.38 c-0.027539 -0.078164 -0.11586 -0.13527 -0.30301 -0.34387 c0 0.54924 0.0024219 0.9478 -0.00042968 1.3464 c-0.025117 3.7856 -0.04172 7.5708 -0.085468 11.356 c-0.0076952 0.67728 -0.095588 1.3586 -0.20332 2.0285 c-0.16039 0.9936 -0.50672 1.2727 -1.5024 1.2403 c-0.48324 -0.015781 -0.97052 -0.070076 -1.4444 -0.16484 c-0.93324 -0.18633 -1.1508 -0.40908 -1.1649 -1.3695 c-0.027148 -1.8742 -0.092772 -3.7548 0.022656 -5.6228 c0.35484 -5.728 0.50428 -11.452 0.08832 -17.183 c-0.063204 -0.87004 -0.050664 -1.7498 -0.012578 -2.6223 c0.043752 -1.0074 0.4468 -1.3732 1.4651 -1.4177 c0.32242 -0.01418 0.64928 0.04172 0.97052 0.017812 c1.0045 -0.075352 1.7037 0.42488 2.1274 1.2496 c0.47108 0.91664 0.89032 1.873 1.2087 2.852 c0.77 2.3684 1.4456 4.7672 2.2043 7.1392 c0.40872 1.2788 0.90976 2.5279 1.3691 3.7905 z M125.81399999999998 16.444 c-0.34836 0.0076952 -0.6988 0.00078124 -1.0143 0.00078124 c-0.34836 1.1548 -0.4476 6.376 -0.16648 7.8692 l3.5556 0 c0.32406 0 0.64812 -0.0073048 0.97176 0.0016016 c0.90572 0.025508 1.2237 0.35199 1.2083 1.2484 c-0.0076952 0.45204 -0.051056 0.90324 -0.049844 1.3553 c0.0028516 0.95996 -0.22113 1.2249 -1.169 1.267 c-1.1321 0.050236 -2.265 0.078984 -3.398 0.11262 c-0.28758 0.0085156 -0.57596 0.0012109 -0.93852 0.0012109 l0 7.6058 c0.26328 0 0.53916 0.0012109 0.81456 0 c1.909 -0.0089064 3.8184 -0.0085156 5.7272 -0.033633 c0.61284 -0.008086 0.98508 0.25558 1.1442 0.83036 c0.12922 0.46664 0.28516 0.93284 0.34793 1.41 c0.10328 0.7842 -0.30137 1.3164 -1.0864 1.4529 c-0.41152 0.07168 -0.83804 0.067228 -1.2581 0.078164 c-2.8811 0.07332 -5.7624 0.13488 -8.6428 0.21426 c-1.2788 0.035234 -1.6579 -0.21387 -1.7571 -1.4918 c-0.079804 -1.028 -0.011367 -2.0694 0.018203 -3.104 c0.10816 -3.7544 0.28558 -7.508 0.31637 -11.263 c0.013359 -1.6437 -0.2325 -3.2931 -0.4176 -4.934 c-0.20457 -1.8142 -0.1827 -3.6179 0.052656 -5.4244 c0.1527 -1.1722 0.58772 -1.5477 1.7822 -1.5696 c2.8808 -0.052656 5.7612 -0.1134 8.6412 -0.18226 c1.7867 -0.042928 1.7863 -0.052228 1.8045 1.6899 c0.0048436 0.48604 0.0032422 0.97212 0.015781 1.4578 c0.01457 0.57196 -0.28438 0.92596 -0.8 1.0746 c-0.401 0.11586 -0.82348 0.19891 -1.2394 0.21512 c-1.4866 0.05832 -2.9747 0.083436 -4.4624 0.11746 z M158.254 24.274 c-0.48604 0.37223 -1.0016 0.70592 -1.5833 1.1122 c0.6748 0.46136 1.2954 0.86888 1.8976 1.301 c1.3258 0.95104 2.0297 2.2841 2.0812 3.8808 c0.10531 3.2587 -1.1649 5.9104 -3.7626 7.898 c-0.30258 0.23129 -0.66428 0.41884 -1.028 0.53064 c-2.436 0.75016 -4.9356 0.992 -7.4744 0.86076 c-0.28801 -0.015 -0.5776 -0.077772 -0.85752 -0.1523 c-0.78256 -0.20902 -1.0045 -0.45608 -1.0791 -1.2792 c-0.55128 -6.0984 -0.90936 -12.199 -0.25602 -18.316 c0.20942 -1.9617 0.30988 -3.9347 0.46544 -5.902 c0.035664 -0.45164 0.097228 -0.90084 0.1418 -1.3517 c0.037266 -0.38195 0.24383 -0.55532 0.62456 -0.60676 c2.9763 -0.4006 5.9216 -0.21344 8.6704 0.99444 c1.8309 0.80444 2.8629 2.466 3.3429 4.4068 c0.3459 1.3987 0.30254 2.8289 0.1782 4.2512 c-0.086288 0.98792 -0.58048 1.7762 -1.3614 2.3728 z M151.1896 27.570999999999998 c0.052264 2.8455 0.04414 5.704 0.5756 8.6688 c0.67604 -0.21914 1.2901 -0.32648 1.8134 -0.60432 c2.201 -1.1678 2.6681 -3.0274 2.3185 -5.048 c-0.30988 -1.7928 -2.1828 -3.7516 -4.7076 -3.0164 z M151.0588 15.832999999999998 l0 6.8013 c2.5567 0.4654 4.752 -2.0553 3.9132 -4.432 c-0.093556 -0.26531 -0.2491 -0.546 -0.45648 -0.72744 c-0.80484 -0.7048 -1.6806 -1.3108 -2.7313 -1.5976 c-0.19688 -0.053868 -0.416 -0.02793 -0.72548 -0.04414 z M170.574 16.444 c-0.34836 0.0076952 -0.6988 0.00078124 -1.0143 0.00078124 c-0.34836 1.1548 -0.4476 6.376 -0.16648 7.8692 l3.5556 0 c0.32406 0 0.64812 -0.0073048 0.97176 0.0016016 c0.90572 0.025508 1.2237 0.35199 1.2083 1.2484 c-0.0076952 0.45204 -0.051056 0.90324 -0.049844 1.3553 c0.0028516 0.95996 -0.22113 1.2249 -1.169 1.267 c-1.1321 0.050236 -2.265 0.078984 -3.398 0.11262 c-0.28758 0.0085156 -0.57596 0.0012109 -0.93852 0.0012109 l0 7.6058 c0.26328 0 0.53916 0.0012109 0.81456 0 c1.909 -0.0089064 3.8184 -0.0085156 5.7272 -0.033633 c0.61284 -0.008086 0.98508 0.25558 1.1442 0.83036 c0.12922 0.46664 0.28516 0.93284 0.34793 1.41 c0.10328 0.7842 -0.30137 1.3164 -1.0864 1.4529 c-0.41152 0.07168 -0.83804 0.067228 -1.2581 0.078164 c-2.8811 0.07332 -5.7624 0.13488 -8.6428 0.21426 c-1.2788 0.035234 -1.6579 -0.21387 -1.7571 -1.4918 c-0.079804 -1.028 -0.011367 -2.0694 0.018203 -3.104 c0.10816 -3.7544 0.28558 -7.508 0.31637 -11.263 c0.013359 -1.6437 -0.2325 -3.2931 -0.4176 -4.934 c-0.20457 -1.8142 -0.1827 -3.6179 0.052656 -5.4244 c0.1527 -1.1722 0.58772 -1.5477 1.7822 -1.5696 c2.8808 -0.052656 5.7612 -0.1134 8.6412 -0.18226 c1.7867 -0.042928 1.7863 -0.052228 1.8045 1.6899 c0.0048436 0.48604 0.0032422 0.97212 0.015781 1.4578 c0.01457 0.57196 -0.28438 0.92596 -0.8 1.0746 c-0.401 0.11586 -0.82348 0.19891 -1.2394 0.21512 c-1.4866 0.05832 -2.9747 0.083436 -4.4624 0.11746 z M191.412 34.0848 c-0.034414 -0.15109 -0.086288 -0.29836 -0.14059 -0.48428 c-1.6178 -0.067656 -3.1918 -0.12965 -4.8304 0.29039 c-0.11219 0.58932 -0.22316 1.184 -0.33859 1.7782 c-0.20942 1.0791 -0.39371 2.1642 -0.64 3.2352 c-0.28476 1.237 -0.69264 1.536 -1.9641 1.5659 c-1.8175 0.042928 -1.9758 -0.053088 -1.8061 -1.8997 c0.16242 -1.768 0.47428 -3.524 0.76148 -5.2784 c0.61608 -3.7666 1.2354 -7.5332 1.9022 -11.291 c0.25965 -1.4623 0.63956 -2.9034 0.98628 -4.3492 c0.32406 -1.3509 0.69592 -2.6908 1.0082 -4.0444 c0.1693 -0.73476 0.48524 -1.218 1.3196 -1.2646 c1.0296 -0.057108 2.0544 -0.24141 3.0833 -0.26004 c1.0803 -0.019453 1.3934 0.35359 1.5923 1.4144 c0.42896 2.2865 0.947 4.5576 1.3306 6.8516 c0.5598 3.3494 1.0208 6.7152 1.5481 10.07 c0.4018 2.5559 0.84372 5.1056 1.2617 7.6592 c0.072928 0.44676 0.14059 0.8972 0.16609 1.348 c0.033203 0.58208 -0.13652 0.7688 -0.69756 0.81616 c-0.41884 0.035625 -0.83968 0.049804 -1.2601 0.063984 c-1.2002 0.0409 -1.9612 -0.51364 -2.2428 -1.6834 c-0.36293 -1.5088 -0.69304 -3.0254 -1.0398 -4.5384 z M190.734 29.427 c-0.36578 -3.2988 -0.72388 -6.4692 -1.406 -9.616 c-0.63592 3.4312 -1.6712 6.766 -2.2209 10.305 c1.2905 -0.24504 2.4453 -0.46456 3.6269 -0.689 z M210.48700000000002 13.084 c0.0089064 -0.25356 0.070468 -0.50456 0.11867 -0.8282 c1.3873 -0.145 2.7524 -0.15066 4.1888 -0.10976 c0 0.87652 0.030781 1.6474 -0.0060936 2.4145 c-0.098008 2.0378 -0.30863 4.0732 -0.32199 6.1112 c-0.019844 3.0748 0.094804 6.1504 0.14219 9.2256 c0.034024 2.2096 -0.082228 4.3856 -0.91824 6.4896 c-0.8976 2.2586 -2.7005 3.2558 -4.9 3.6354 c-2.7082 0.46704 -5.2552 -0.75664 -6.5648 -3.4191 c-0.7684 -1.5619 -1.2472 -3.1942 -1.2682 -4.9416 c-0.018633 -1.5542 0.015391 -3.1092 -0.019844 -4.6624 c-0.049804 -2.201 -0.15754 -4.4004 -0.21102 -6.6012 c-0.049412 -2.0378 -0.060352 -4.076 -0.08668 -6.1144 c-0.0012109 -0.096796 0.012148 -0.19402 0.023476 -0.29043 c0.16242 -1.3926 0.43136 -1.632 1.8624 -1.6425 c0.55048 -0.0040624 1.103 -0.020664 1.6518 0.014961 c0.6254 0.0409 0.72708 0.14906 0.74856 0.77044 c0.031172 0.90652 0.04332 1.8138 0.0409 2.7208 c-0.010117 3.9185 -0.034844 7.8372 -0.039688 11.756 c-0.0020312 1.4574 0.0052736 2.916 0.069688 4.3716 
    
    
    
    c0.028359 0.63956 0.17418 1.2816 0.33133 1.9062 c0.14742 0.58572 0.53424 1.0248 1.0584 1.3371 c1.2873 0.76676 2.4461 0.41516 2.9885 -0.97824 c0.65292 -1.6781 0.89072 -3.4462 0.90204 -5.2364 c0.021875 -3.4 -0.016211 -6.8004 0.014961 -10.2 c0.017422 -1.9098 0.12113 -3.8189 0.19484 -5.728 z M231.24 16.892 c-1.0321 0.067228 -2.0658 0.090428 -3.255 0.13902 c0 1.8896 -0.0097264 3.6661 0.0020312 5.4432 c0.035234 5.3408 0.078592 10.681 0.1191 16.022 c0.0016016 0.19442 0.01293 0.38926 0.00039062 0.58248 c-0.063984 0.9604 -0.4832 1.3436 -1.4286 1.2759 c-0.58004 -0.04172 -1.1609 -0.10449 -1.7353 -0.19524 c-0.48528 -0.076952 -0.82956 -0.30703 -0.84256 -0.88384 c-0.018633 -0.83848 -0.11016 -1.6753 -0.1223 -2.5134 c-0.079804 -5.566 -0.15109 -11.132 -0.21387 -16.698 c-0.009336 -0.84092 0.046172 -1.6826 0.056288 -2.5239 c0.0028516 -0.2175 -0.053048 -0.43584 -0.093164 -0.74044 c-1.1479 -0.093984 -2.2683 -0.20133 -3.3908 -0.27383 c-1.1771 -0.075744 -1.4201 -0.2475 -1.5104 -1.4222 c-0.054296 -0.70316 -0.022695 -1.425 0.072072 -2.1245 c0.10816 -0.8008 0.50392 -1.1224 1.31 -1.1516 c0.58044 -0.021055 1.1637 0.031602 1.7458 0.053868 c2.3275 0.089924 4.6556 0.16363 6.982 0.27988 c0.90004 0.04496 1.811 0.11504 2.6884 0.30543 c0.9604 0.20859 1.1483 0.52696 1.1439 1.5023 c-0.0024219 0.54844 -0.0097264 1.1046 -0.10004 1.6425 c-0.15473 0.91988 -0.49864 1.2192 -1.4278 1.2796 z M244.10080000000002 19.596 c0.068436 0.20496 0.17734 0.3975 0.29238 0.64984 c1.0799 -2.7778 2.131 -5.4832 3.153 -8.1116 c1.1763 -0.079804 2.2068 -0.1584 3.2388 -0.21633 c0.81376 -0.04578 1.0868 0.22965 0.9644 1.0215 c-0.063204 0.41076 -0.20699 0.81456 -0.35688 1.2054 c-1.4716 3.835 -2.9606 7.6632 -4.4188 11.503 c-0.19039 0.50188 -0.30543 1.0552 -0.33539 1.5915 c-0.20254 3.6224 -0.23777 7.2472 -0.066836 10.873 c0.022695 0.48324 0.0085156 0.97456 -0.052656 1.4541 c-0.088712 0.69424 -0.34672 0.89884 -1.041 0.85952 c-0.90084 -0.050624 -1.8021 -0.11262 -2.6993 -0.20539 c-0.80484 -0.083048 -1.0256 -0.28438 -1.0272 -1.1119 c-0.0028516 -1.877 0.049412 -3.7541 0.089532 -5.6312 c0.039297 -1.8442 0.10856 -3.6884 0.13125 -5.5328 c0.012969 -1.0454 -0.21102 -2.0366 -0.67888 -2.9974 c-0.49456 -1.0146 -0.87816 -2.0856 -1.2755 -3.1452 c-0.99888 -2.6648 -1.975 -5.3384 -2.9662 -8.006 c-0.52656 -1.4177 -0.42976 -1.5582 1.0426 -1.6202 c0.51404 -0.021484 1.026 -0.12356 1.5364 -0.20215 c0.90328 -0.13973 1.6044 0.11262 1.973 1.0062 c0.57884 1.4031 1.1702 2.8014 1.7158 4.2176 c0.30176 0.78336 0.51644 1.6 0.78136 2.3979 z"></path></g></svg>